<svg width="1642" height="220" viewBox="0 0 1642 220" fill="none" xmlns="http://www.w3.org/2000/svg">
<path d="M246.4 51.3999H301.6C341.5 51.3999 351.7 74.8999 351.7 93.9999C351.7 113.1 341.4 136.6 301.6 136.6H267.5V203.8H246.4V51.3999ZM267.6 118.6H295.5C312.3 118.6 329 114.8 329 94.0999C329 73.3999 312.2 69.5999 295.5 69.5999H267.6V118.6Z" fill="#111111"/>
<path d="M379.4 50.7C387.4 50.7 393.9 56.9999 394 64.6999C394.1 72.4999 387.8 78.8999 379.8 79.0999C371.8 79.2999 365.2 73.2 364.9 65.4C364.8 61.5 366.3 57.8 369 55C371.6 52.3 375.4 50.7 379.4 50.7ZM369.6 101.8H389.2V203.9H369.6V101.8Z" fill="#111111"/>
<path d="M412 101.8H431.9V117.6H432.4C439.3 105.6 452.7 98.3999 466.8 99.2999C487.1 99.2999 504.6 111.2 504.6 138.3V204H485V143.8C485 124.6 473.7 117.5 461.1 117.5C444.6 117.5 432 127.8 432 151.5V204H412V101.8Z" fill="#111111"/>
<path d="M540.9 160C540.9 177.8 557.9 189.5 576.2 189.5C587.7 189.2 598.4 183.5 604.9 174.3L620 185.5C609 199.6 591.6 207.5 573.5 206.6C540.3 206.6 519.7 183.4 519.7 153C519.1 138.8 524.6 125 534.8 114.9C545 104.8 559 99.2 573.6 99.4C610.5 99.4 624.6 126.9 624.6 153.2V160.1H540.9V160ZM603.7 144.5C603.2 127.5 593.5 115 573.5 115C556.4 114.9 542.1 127.8 541 144.5H603.7Z" fill="#111111"/>
<path d="M714.6 129C708.1 121.5 698.6 117.3 688.5 117.6C666.9 117.6 655.8 134.6 655.8 153.8C655.3 162.9 658.6 171.7 665 178.3C671.4 184.9 680.3 188.6 689.6 188.5C699.4 188.8 708.8 184.6 715 177.1L729.1 190.7C718.8 201.3 704.3 207 689.4 206.4C674.7 207.1 660.4 201.8 650 191.6C639.6 181.5 634 167.5 634.7 153.2C634 138.8 639.6 124.8 650 114.6C660.4 104.4 674.7 98.9 689.5 99.4C704.6 99 719.2 104.9 729.7 115.5L714.6 129Z" fill="#111111"/>
<path d="M787.9 99.1998C818.1 99.6998 842.3 123.9 842 153.4C841.7 182.9 817 206.6 786.7 206.4C756.5 206.2 732 182.3 732 152.8C732 138.4 737.9 124.7 748.4 114.6C759 104.5 773.2 98.9998 787.9 99.1998ZM787.9 188.4C809 188.4 822.3 173.7 822.3 152.8C822.3 132 809 117.3 787.9 117.3C766.8 117.3 753.4 132 753.4 152.8C753.4 173.6 766.7 188.4 787.9 188.4Z" fill="#111111"/>
<path d="M859.7 101.8H879.6V117.6C886.5 105.5 900 98.3999 914.1 99.2999C934.4 99.2999 951.9 111.2 951.9 138.3V204H932V143.8C932 124.6 920.7 117.5 908.2 117.5C891.6 117.5 879.1 127.8 879.1 151.5V204H859.8V101.8H859.7Z" fill="#111111"/>
<path d="M988.8 160C988.8 177.8 1005.8 189.5 1024.1 189.5C1035.6 189.1 1046.3 183.5 1052.8 174.3L1067.9 185.5C1056.9 199.5 1039.6 207.3 1021.5 206.3C988.4 206.3 967.7 183.1 967.7 152.7C967.1 138.5 972.6 124.6 982.8 114.5C993 104.3 1007.1 98.8 1021.7 99.1C1058.6 99.1 1072.7 126.6 1072.7 152.9V159.8L988.8 160ZM1051.5 144.4C1051 127.4 1041.4 114.9 1021.3 114.9C1004.2 114.8 989.9 127.7 988.8 144.4H1051.5Z" fill="#111111"/>
<path fill-rule="evenodd" clip-rule="evenodd" d="M127 6.39992C124.9 3.89992 121.4 3.29992 118.6 4.89992L116 6.29992L87.6998 22.3999L94.2998 33.9999L112.7 23.4999L108.2 48.0999L121.3 50.4999L125.9 25.7999L139.5 41.9999L149.7 33.3999L129.1 8.79992H129L127 6.39992ZM87.2998 213.9C94.0998 213.9 99.5998 208.5 99.5998 201.9C99.5998 195.3 94.0998 189.9 87.2998 189.9C80.4998 189.9 74.9998 195.3 74.9998 201.9C74.8998 208.5 80.4998 213.9 87.2998 213.9ZM103.8 148L99.3998 172.7L86.1998 170.3L90.5998 145.7L72.1998 156.3L65.4998 144.7L93.5998 128.6L96.1998 127.1C98.9998 125.5 102.5 126.1 104.6 128.6L106.6 131L127.5 155.5L117.3 164.2L103.8 148ZM114.5 88.9999L110.1 113.7L96.8998 111.3L101.3 86.7999L82.9998 97.2999L76.3998 85.6999L104.4 69.6999V69.4999H104.6L107.2 67.9999C110 66.3999 113.5 66.9999 115.6 69.4999L117.6 71.7999L138.4 96.3999L128.2 105.1L114.5 88.9999ZM28.1998 186.6H28.0998L25.3998 185.8C22.4998 185 20.5998 182.2 20.7998 179.2L23.1998 145.8L35.8998 146.7L34.3998 167L54.0998 153.6L61.1998 164.1L41.8998 177.2L61.5998 182.9L58.0998 195.1L28.1998 186.6ZM158.9 200.4L158 203.3C157.1 206.1 154.5 208 151.5 207.8L148.7 207.6L148.5 207.7L148.4 207.6L117.4 205.5L118.2 192.8L138.8 194.2L125.3 175.3L135.6 167.9L149.4 187.3L155.4 167.7L167.5 171.4L158.9 200.4ZM195.3 131.6L196.8 134.3C198.3 137 197.7 140.4 195.3 142.4L193.1 144.3V144.4H193L168.9 164.8L160.5 154.9L176.3 141.5L152.6 137.3L154.9 124.5L178.8 128.7L168.8 110.7L180.1 104.4L195.3 131.6ZM170.8 75.7999L149.4 87.2999L143.2 75.8999L164.3 64.5999L145 56.6999L149.9 44.6999L179.3 56.5999L179.4 56.4999L179.5 56.6999L182.2 57.7999C185.1 58.9999 186.7 61.9999 186.2 64.9999L185.7 67.9999L180.2 98.4999L167.4 96.1999L170.8 75.7999ZM27.1998 102.6L50.9998 106.6L48.7998 119.4L24.7998 115.3L34.9998 133.3L23.6998 139.7L8.29984 112.6L6.79984 110C5.29984 107.3 5.89984 103.9 8.19984 101.9L10.3998 99.9999V99.8999H10.4998L34.2998 79.3999L42.7998 89.2999L27.1998 102.6ZM63.0998 47.1999L78.8998 64.7999L69.1998 73.4999L52.9998 55.4999L49.2998 75.9999L36.4998 73.6999L42.0998 43.2999L42.6998 40.1999C43.1998 37.1999 45.7998 34.9999 48.7998 34.8999L51.5998 34.7999L51.6998 34.6999L51.7998 34.7999L83.5998 33.4999L84.0998 46.4999L63.0998 47.1999Z" fill="#111111"/>
<path d="M1201.39 209H1158.54V76.6364H1202.75C1215.72 76.6364 1226.86 79.2862 1236.16 84.5859C1245.47 89.8426 1252.6 97.4043 1257.56 107.271C1262.55 117.095 1265.05 128.879 1265.05 142.624C1265.05 156.412 1262.53 168.261 1257.49 178.171C1252.49 188.081 1245.25 195.708 1235.78 201.05C1226.3 206.35 1214.84 209 1201.39 209ZM1178.51 191.55H1200.29C1210.38 191.55 1218.76 189.654 1225.43 185.862C1232.11 182.027 1237.11 176.491 1240.43 169.252C1243.75 161.97 1245.41 153.094 1245.41 142.624C1245.41 132.24 1243.75 123.429 1240.43 116.19C1237.15 108.952 1232.26 103.458 1225.76 99.7095C1219.25 95.9609 1211.17 94.0866 1201.52 94.0866H1178.51V191.55ZM1330.15 211.004C1320.85 211.004 1312.72 208.871 1305.79 204.605C1298.85 200.339 1293.46 194.372 1289.63 186.702C1285.79 179.033 1283.88 170.071 1283.88 159.816C1283.88 149.518 1285.79 140.513 1289.63 132.8C1293.46 125.088 1298.85 119.099 1305.79 114.833C1312.72 110.567 1320.85 108.435 1330.15 108.435C1339.46 108.435 1347.58 110.567 1354.52 114.833C1361.46 119.099 1366.84 125.088 1370.68 132.8C1374.51 140.513 1376.43 149.518 1376.43 159.816C1376.43 170.071 1374.51 179.033 1370.68 186.702C1366.84 194.372 1361.46 200.339 1354.52 204.605C1347.58 208.871 1339.46 211.004 1330.15 211.004ZM1330.22 194.781C1336.25 194.781 1341.25 193.187 1345.21 189.999C1349.18 186.81 1352.11 182.566 1354 177.266C1355.94 171.967 1356.91 166.128 1356.91 159.751C1356.91 153.418 1355.94 147.601 1354 142.301C1352.11 136.958 1349.18 132.671 1345.21 129.44C1341.25 126.208 1336.25 124.592 1330.22 124.592C1324.14 124.592 1319.1 126.208 1315.09 129.44C1311.13 132.671 1308.18 136.958 1306.24 142.301C1304.34 147.601 1303.4 153.418 1303.4 159.751C1303.4 166.128 1304.34 171.967 1306.24 177.266C1308.18 182.566 1311.13 186.81 1315.09 189.999C1319.1 193.187 1324.14 194.781 1330.22 194.781ZM1439.81 211.004C1430.21 211.004 1421.93 208.828 1415 204.476C1408.1 200.081 1402.8 194.027 1399.1 186.315C1395.39 178.602 1393.54 169.769 1393.54 159.816C1393.54 149.734 1395.43 140.836 1399.23 133.124C1403.02 125.368 1408.36 119.314 1415.25 114.962C1422.15 110.611 1430.27 108.435 1439.62 108.435C1447.16 108.435 1453.88 109.835 1459.79 112.636C1465.69 115.393 1470.45 119.271 1474.07 124.269C1477.73 129.267 1479.91 135.106 1480.6 141.784H1461.79C1460.75 137.131 1458.39 133.124 1454.68 129.763C1451.02 126.402 1446.11 124.722 1439.94 124.722C1434.56 124.722 1429.84 126.143 1425.79 128.987C1421.78 131.788 1418.66 135.795 1416.42 141.009C1414.18 146.179 1413.06 152.297 1413.06 159.364C1413.06 166.602 1414.16 172.85 1416.35 178.107C1418.55 183.363 1421.65 187.435 1425.66 190.322C1429.71 193.209 1434.47 194.652 1439.94 194.652C1443.61 194.652 1446.92 193.984 1449.9 192.648C1452.91 191.27 1455.43 189.309 1457.46 186.767C1459.53 184.225 1460.97 181.166 1461.79 177.589H1480.6C1479.91 184.009 1477.82 189.74 1474.33 194.781C1470.84 199.822 1466.16 203.786 1460.3 206.673C1454.49 209.56 1447.66 211.004 1439.81 211.004ZM1575.65 133.964L1558.14 137.066C1557.4 134.826 1556.24 132.693 1554.65 130.668C1553.1 128.643 1550.98 126.984 1548.31 125.691C1545.64 124.398 1542.3 123.752 1538.3 123.752C1532.82 123.752 1528.26 124.98 1524.59 127.436C1520.93 129.849 1519.1 132.973 1519.1 136.808C1519.1 140.125 1520.33 142.797 1522.78 144.822C1525.24 146.847 1529.2 148.506 1534.68 149.798L1550.45 153.418C1559.58 155.529 1566.39 158.782 1570.87 163.177C1575.35 167.572 1577.59 173.281 1577.59 180.304C1577.59 186.25 1575.87 191.55 1572.42 196.203C1569.02 200.813 1564.26 204.433 1558.14 207.061C1552.06 209.689 1545.02 211.004 1537 211.004C1525.89 211.004 1516.82 208.634 1509.79 203.894C1502.77 199.112 1498.46 192.325 1496.87 183.536L1515.55 180.692C1516.71 185.561 1519.1 189.245 1522.72 191.744C1526.34 194.2 1531.06 195.428 1536.87 195.428C1543.21 195.428 1548.27 194.113 1552.06 191.485C1555.85 188.814 1557.75 185.561 1557.75 181.726C1557.75 178.624 1556.59 176.017 1554.26 173.906C1551.98 171.794 1548.46 170.2 1543.72 169.123L1526.92 165.439C1517.66 163.328 1510.81 159.967 1506.37 155.357C1501.97 150.746 1499.78 144.908 1499.78 137.842C1499.78 131.982 1501.41 126.854 1504.69 122.46C1507.96 118.065 1512.49 114.639 1518.26 112.183C1524.03 109.684 1530.65 108.435 1538.1 108.435C1548.83 108.435 1557.28 110.761 1563.44 115.415C1569.6 120.025 1573.67 126.208 1575.65 133.964Z" fill="#111111"/>
</svg>
